<?xml version="1.0" encoding="UTF-8" standalone="no"?><!DOCTYPE svg PUBLIC "-//W3C//DTD SVG 1.1//EN" "http://www.w3.org/Graphics/SVG/1.1/DTD/svg11.dtd"><svg width="100%" height="100%" viewBox="0 0 719 736" version="1.1" xmlns="http://www.w3.org/2000/svg" xmlns:xlink="http://www.w3.org/1999/xlink" xml:space="preserve" xmlns:serif="http://www.serif.com/" style="fill-rule:evenodd;clip-rule:evenodd;stroke-miterlimit:10;"><rect id="Artboard1" x="0" y="2" width="718.998" height="736" style="fill:none;"/><g id="simplified"><path d="M670.693,370c-0,171.868 -139.326,311.194 -311.194,311.194c-171.868,-0 -311.194,-139.326 -311.194,-311.194c-0,-171.868 139.326,-311.194 311.194,-311.194c171.868,0 311.194,139.326 311.194,311.194" style="fill:#f7a11c;fill-rule:nonzero;"/><path d="M602.819,370c0,134.382 -108.938,243.321 -243.321,243.321c-134.382,-0 -243.321,-108.939 -243.321,-243.321c0,-134.382 108.939,-243.321 243.321,-243.321c134.383,0 243.321,108.939 243.321,243.321" style="fill:#f7a11c;fill-rule:nonzero;"/><path d="M586.025,370c0,-125.024 -101.503,-226.527 -226.527,-226.527c-125.024,-0 -226.527,101.503 -226.527,226.527c-0,125.024 101.503,226.527 226.527,226.527c125.024,0 226.527,-101.503 226.527,-226.527Z" style="fill:none;stroke:#f7a11c;stroke-width:1.39px;"/><g transform="matrix(105,0,0,105,573.174,400.836)"></g><text x="145.824px" y="400.836px" style="font-family:'BauhausModern-Regular', 'Bauhaus Modern';font-size:105px;fill:#030404;">NOMA</text></g></svg>