<?xml version="1.0" encoding="UTF-8"?>
<svg xmlns="http://www.w3.org/2000/svg" width="24" height="24" viewBox="0 0 24 24" fill="none">
  <path d="M12 11.0001v2.6h6.9c-.3 1.8-2.1 5.2-6.9 5.2-4.2 0-7.7-3.5-7.7-7.8s3.5-7.8 7.7-7.8c2.4 0 4.1 1 5 1.9l3.4-3.3C18.6.7 15.6-.5 12-.5 5.8-.5.8 4.5.8 10.9s5 11.4 11.2 11.4c6.5 0 10.8-4.6 10.8-11.1 0-.7-.1-1.1-.2-1.7H12z" fill="#4285F4"/>
  <path d="M1.5 7.3l3.6 2.6C6 7.2 8.7 5.1 12 5.1c2.4 0 4.1 1 5 1.9l3.4-3.3C18.6.7 15.6-.5 12-.5 7.5-.5 3.6 2 1.5 7.3z" fill="#EA4335"/>
  <path d="M12 22.3c3.7 0 6.8-1.2 9-3.3l-3.6-2.8c-1 .7-2.3 1.2-5.4 1.2-3.4 0-6.3-2.2-7.4-5.2L1.6 14c2 5.2 6 8.3 10.4 8.3z" fill="#34A853"/>
  <path d="M21 9.6H12v2.6h6.9c-.3 1.8-2.1 5.2-6.9 5.2-3.3 0-6.1-2.2-7.2-5.1l-3.6 2.7c2 5.2 6 8.3 10.4 8.3 6.5 0 10.8-4.6 10.8-11.1 0-.7-.1-1.3-.2-1.7z" fill="#FBBC05" fill-opacity=".8"/>
</svg>
