<?xml version="1.0" encoding="UTF-8" standalone="no"?><!DOCTYPE svg PUBLIC "-//W3C//DTD SVG 1.1//EN" "http://www.w3.org/Graphics/SVG/1.1/DTD/svg11.dtd"><svg width="100%" height="100%" viewBox="0 0 1500 1500" version="1.1" xmlns="http://www.w3.org/2000/svg" xmlns:xlink="http://www.w3.org/1999/xlink" xml:space="preserve" xmlns:serif="http://www.serif.com/" style="fill-rule:evenodd;clip-rule:evenodd;stroke-miterlimit:10;"><rect id="_3" serif:id="3" x="0" y="0" width="1500" height="1500" style="fill:none;"/><clipPath id="_clip1"><rect x="0" y="0" width="1500" height="1500"/></clipPath><g clip-path="url(#_clip1)"><g><path d="M1319.71,750c-0,314.642 -255.067,569.71 -569.71,569.71c-314.642,-0 -569.71,-255.068 -569.71,-569.71c0,-314.642 255.068,-569.71 569.71,-569.71c314.643,0 569.71,255.068 569.71,569.71" style="fill:#f7a11c;fill-rule:nonzero;"/><path d="M1319.71,750c-0,-314.431 -255.279,-569.71 -569.71,-569.71c-314.432,0 -569.71,255.279 -569.71,569.71c0,314.431 255.278,569.71 569.71,569.71c314.431,-0 569.71,-255.279 569.71,-569.71Z" style="fill:none;stroke:#fcc682;stroke-width:287.5px;stroke-dasharray:16.66,16.66;"/><path d="M1164.71,750c0,229.037 -185.671,414.709 -414.708,414.709c-229.037,-0 -414.709,-185.672 -414.709,-414.709c0,-229.037 185.672,-414.709 414.709,-414.709c229.037,0 414.708,185.672 414.708,414.709" style="fill:#f7a11c;fill-rule:nonzero;"/><path d="M1164.71,750c0,-228.884 -185.824,-414.709 -414.708,-414.709c-228.884,0 -414.709,185.825 -414.709,414.709c0,228.884 185.825,414.709 414.709,414.709c228.884,-0 414.708,-185.825 414.708,-414.709Z" style="fill:none;stroke:#f7a11c;stroke-width:4.17px;"/><g><path d="M524.302,812.05l0,-63.659c-0.113,-13.39 -4.822,-24.737 -14.127,-34.042c-9.305,-9.305 -20.653,-13.957 -34.043,-13.957c-13.163,-0 -24.397,4.624 -33.701,13.872c-9.305,9.248 -14.071,20.454 -14.298,33.617l-0,64.169l-16,0l0,-63.659c0,-17.588 6.241,-32.652 18.723,-45.191c12.482,-12.539 27.574,-18.808 45.276,-18.808c17.589,-0 32.624,6.184 45.106,18.553c12.483,12.368 18.837,27.347 19.064,44.936l0,64.169l-16,0Z" style="fill:#030404;fill-rule:nonzero;"/><path d="M576.131,702.689c12.539,-12.538 27.66,-18.808 45.362,-18.808c17.702,0 32.794,6.27 45.276,18.808c12.482,12.539 18.723,27.603 18.723,45.192c0,17.701 -6.241,32.822 -18.723,45.361c-12.482,12.539 -27.574,18.808 -45.276,18.808c-17.702,0 -32.823,-6.269 -45.362,-18.808c-12.538,-12.539 -18.808,-27.66 -18.808,-45.361c0,-17.589 6.27,-32.653 18.808,-45.192Zm11.32,79.234c9.418,9.418 20.765,14.127 34.042,14.127c13.276,0 24.595,-4.709 33.957,-14.127c9.362,-9.419 14.042,-20.766 14.042,-34.042c0,-13.163 -4.68,-24.454 -14.042,-33.872c-9.362,-9.419 -20.681,-14.128 -33.957,-14.128c-13.277,-0 -24.624,4.709 -34.042,14.128c-9.419,9.418 -14.128,20.709 -14.128,33.872c0,13.276 4.709,24.623 14.128,34.042Z" style="fill:#030404;fill-rule:nonzero;"/><path d="M926.681,812.05l0,-63.659c0,-13.163 -4.709,-24.454 -14.127,-33.872c-9.418,-9.418 -20.709,-14.127 -33.872,-14.127c-13.05,-0 -24.227,4.539 -33.532,13.617c-9.305,9.077 -14.127,20.084 -14.468,33.02l0,65.021l-16,0l-0.17,-65.021c-0.34,-12.936 -5.163,-23.943 -14.468,-33.02c-9.305,-9.078 -20.482,-13.617 -33.531,-13.617c-13.277,-0 -24.596,4.709 -33.957,14.127c-9.362,9.418 -14.043,20.709 -14.043,33.872l0,63.659l-16,0l0,-64.169c0.114,-17.589 6.412,-32.568 18.894,-44.936c12.482,-12.369 27.517,-18.553 45.106,-18.553c11.914,-0 22.836,3.007 32.765,9.021c9.929,6.014 17.674,14.014 23.234,24c5.674,-10.099 13.475,-18.128 23.404,-24.085c9.929,-5.958 20.851,-8.936 32.766,-8.936c17.588,-0 32.595,6.184 45.021,18.553c12.425,12.368 18.751,27.347 18.978,44.936l0,64.169l-16,0Z" style="fill:#030404;fill-rule:nonzero;"/><path d="M1023.87,683.881c17.588,0 32.652,6.27 45.191,18.808c12.539,12.539 18.808,27.603 18.808,45.192l0,64.169l-15.999,0l-0,-18.212l-96.17,-0l0,18.212l-16,0l0,-64.169c0,-17.589 6.27,-32.653 18.809,-45.192c12.539,-12.538 27.659,-18.808 45.361,-18.808Zm48,93.957l-0,-29.957c-0,-13.163 -4.71,-24.454 -14.128,-33.872c-9.418,-9.419 -20.709,-14.128 -33.872,-14.128c-13.277,-0 -24.624,4.709 -34.042,14.128c-9.419,9.418 -14.128,20.709 -14.128,33.872l0,29.957l96.17,-0Z" style="fill:#030404;fill-rule:nonzero;"/></g></g></g></svg>